<?xml version="1.0" encoding="UTF-8" standalone="no"?>
<!-- Created with Inkscape (http://www.inkscape.org/) -->

<svg
   width="185.97983mm"
   height="197.5537mm"
   viewBox="0 0 185.97983 197.5537"
   version="1.1"
   id="svg5"
   sodipodi:docname="index-inspector.svg"
   inkscape:version="1.2 (dc2aedaf03, 2022-05-15)"
   xmlns:inkscape="http://www.inkscape.org/namespaces/inkscape"
   xmlns:sodipodi="http://sodipodi.sourceforge.net/DTD/sodipodi-0.dtd"
   xmlns="http://www.w3.org/2000/svg"
   xmlns:svg="http://www.w3.org/2000/svg">
  <sodipodi:namedview
     id="namedview7"
     pagecolor="#ffffff"
     bordercolor="#000000"
     borderopacity="0.25"
     inkscape:showpageshadow="2"
     inkscape:pageopacity="0.0"
     inkscape:pagecheckerboard="0"
     inkscape:deskcolor="#d1d1d1"
     inkscape:document-units="mm"
     showgrid="false"
     inkscape:zoom="0.71624579"
     inkscape:cx="131.93795"
     inkscape:cy="511.69585"
     inkscape:window-width="1920"
     inkscape:window-height="991"
     inkscape:window-x="-9"
     inkscape:window-y="-9"
     inkscape:window-maximized="1"
     inkscape:current-layer="layer1" />
  <defs
     id="defs2" />
  <g
     inkscape:label="Layer 1"
     inkscape:groupmode="layer"
     id="layer1"
     transform="translate(-342.16679,-121.75438)">
    <ellipse
       style="fill:none;fill-opacity:1;stroke:#000000;stroke-width:8.00191;stroke-dasharray:none;stroke-opacity:1"
       id="ellipse24706-1"
       cx="33.461384"
       cy="479.37177"
       transform="matrix(0.49492516,-0.86893561,0.88379667,0.46787119,0,0)"
       rx="47.272434"
       ry="46.802151"
       inkscape:export-filename="index-inspector-logo.png"
       inkscape:export-xdpi="96"
       inkscape:export-ydpi="96" />
    <rect
       style="fill:#00e528;fill-opacity:1;stroke:none;stroke-width:5.65319;stroke-linecap:round;stroke-dasharray:none;stroke-opacity:1"
       id="rect24280-5"
       width="185.97963"
       height="6"
       x="342.16681"
       y="121.75437"
       ry="3" />
    <path
       style="fill:#f06600;fill-opacity:1;stroke:none;stroke-width:5.65319;stroke-linecap:round;stroke-dasharray:none;stroke-opacity:1"
       d="m 413.17331,167.7789 c -1.88532,1.80128 -3.61645,3.80489 -5.15886,6.00015 h 65.63889 c -1.39891,-2.14273 -3.03113,-4.15465 -4.88394,-6.00015 z"
       id="path24895-0" />
    <path
       style="fill:#f06600;fill-opacity:1;stroke:none;stroke-width:5.65319;stroke-linecap:round;stroke-dasharray:none;stroke-opacity:1"
       d="m 345.16661,167.7789 c -1.662,0 -2.99982,1.33833 -2.99982,3.00033 0,1.662 1.33782,2.99982 2.99982,2.99982 h 44.46137 c 0.65592,-1.41987 1.37396,-2.82614 2.16369,-4.21267 0.34484,-0.60543 0.70313,-1.19927 1.06763,-1.78748 z"
       id="rect24282-5" />
    <path
       style="fill:#ff0a2b;fill-opacity:1;stroke:none;stroke-width:5.65319;stroke-linecap:round;stroke-dasharray:none;stroke-opacity:1"
       d="m 405.13504,213.804 c 1.12351,2.10942 2.45022,4.12142 3.9827,5.99963 h 60.85727 c 1.58283,-1.83606 3.0197,-3.8393 4.28604,-5.99963 z"
       id="path24901-9" />
    <path
       style="fill:#ff0a2b;fill-opacity:1;stroke:none;stroke-width:5.65319;stroke-linecap:round;stroke-dasharray:none;stroke-opacity:1"
       d="m 345.16661,213.804 c -1.662,0 -2.99982,1.33782 -2.99982,2.99981 0,1.662 1.33782,2.99982 2.99982,2.99982 h 44.897 c -0.95656,-1.94888 -1.79064,-3.95282 -2.49959,-5.99963 z"
       id="rect24284-9" />
    <rect
       style="fill:#01001f;fill-opacity:1;stroke:none;stroke-width:23.7488;stroke-linecap:round;stroke-dasharray:none;stroke-opacity:1"
       id="rect21999-1"
       width="6.9420576"
       height="91.679688"
       x="312.55286"
       y="409.46036"
       ry="3.4710288"
       transform="rotate(-25.190073)" />
    <path
       id="rect24286-6"
       style="fill:#00e528;fill-opacity:1;stroke:none;stroke-width:5.65319;stroke-linecap:round;stroke-dasharray:none;stroke-opacity:1"
       d="m 345.16661,259.82858 c -1.662,0 -2.99982,1.33782 -2.99982,2.99981 0,1.662 1.33782,3.00034 2.99982,3.00034 h 118.33231 l -2.82205,-6.00015 z m 137.61227,0 2.82205,6.00015 h 39.54539 c 1.662,0 3.00033,-1.33834 3.00033,-3.00034 0,-1.66199 -1.33833,-2.99981 -3.00033,-2.99981 z" />
    <path
       id="rect24288-1"
       style="fill:#00e528;fill-opacity:1;stroke:none;stroke-width:5.65319;stroke-linecap:round;stroke-dasharray:none;stroke-opacity:1"
       d="m 345.16661,305.85316 c -1.662,0 -2.99982,1.33833 -2.99982,3.00033 0,1.662 1.33782,2.99982 2.99982,2.99982 h 139.98008 l -2.82205,-6.00015 z m 159.26004,0 2.82205,6.00015 h 17.89762 c 1.662,0 3.00033,-1.33782 3.00033,-2.99982 0,-1.662 -1.33833,-3.00033 -3.00033,-3.00033 z" />
  </g>
</svg>
