<?xml version="1.0" encoding="UTF-8" standalone="no"?>
<!-- Created with Inkscape (http://www.inkscape.org/) -->

<svg
   width="210mm"
   height="297mm"
   viewBox="0 0 210 297"
   version="1.1"
   id="svg5"
   sodipodi:docname="index-inspector.svg"
   inkscape:version="1.2 (dc2aedaf03, 2022-05-15)"
   xmlns:inkscape="http://www.inkscape.org/namespaces/inkscape"
   xmlns:sodipodi="http://sodipodi.sourceforge.net/DTD/sodipodi-0.dtd"
   xmlns="http://www.w3.org/2000/svg"
   xmlns:svg="http://www.w3.org/2000/svg">
  <sodipodi:namedview
     id="namedview7"
     pagecolor="#ffffff"
     bordercolor="#000000"
     borderopacity="0.25"
     inkscape:showpageshadow="2"
     inkscape:pageopacity="0.0"
     inkscape:pagecheckerboard="0"
     inkscape:deskcolor="#d1d1d1"
     inkscape:document-units="mm"
     showgrid="false"
     inkscape:zoom="0.50646226"
     inkscape:cx="877.65672"
     inkscape:cy="666.38727"
     inkscape:window-width="1920"
     inkscape:window-height="991"
     inkscape:window-x="-9"
     inkscape:window-y="-9"
     inkscape:window-maximized="1"
     inkscape:current-layer="layer1" />
  <defs
     id="defs2" />
  <g
     inkscape:label="Layer 1"
     inkscape:groupmode="layer"
     id="layer1">
    <ellipse
       style="fill:none;fill-opacity:1;stroke:#000000;stroke-width:8.00191;stroke-dasharray:none;stroke-opacity:1"
       id="ellipse24706"
       cx="-40.799152"
       cy="147.10182"
       transform="matrix(0.49492516,-0.86893561,0.88379667,0.46787119,0,0)"
       rx="47.272434"
       ry="46.802151"
       inkscape:export-filename="index-inspector-logo.png"
       inkscape:export-xdpi="96"
       inkscape:export-ydpi="96" />
    <rect
       style="fill:#00e528;fill-opacity:1;stroke:none;stroke-width:5.65319;stroke-linecap:round;stroke-dasharray:none;stroke-opacity:1"
       id="rect24280"
       width="185.97963"
       height="6"
       x="11.754332"
       y="30.822468"
       ry="3" />
    <path
       style="fill:#f06600;fill-opacity:1;stroke:none;stroke-width:5.65319;stroke-linecap:round;stroke-dasharray:none;stroke-opacity:1"
       d="m 82.76084,76.846989 c -1.88532,1.80128 -3.616451,3.804895 -5.158858,6.00015 h 65.638888 c -1.39891,-2.142723 -3.03113,-4.154647 -4.88394,-6.00015 z"
       id="path24895" />
    <path
       style="fill:#f06600;fill-opacity:1;stroke:none;stroke-width:5.65319;stroke-linecap:round;stroke-dasharray:none;stroke-opacity:1"
       d="m 14.754138,76.846989 c -1.661998,0 -2.999817,1.338335 -2.999817,3.000334 0,1.661998 1.337819,2.999816 2.999817,2.999816 h 44.461369 c 0.655923,-1.419867 1.373961,-2.826139 2.163692,-4.212662 0.34484,-0.605432 0.703131,-1.199276 1.067635,-1.787488 z"
       id="rect24282" />
    <path
       style="fill:#ff0a2b;fill-opacity:1;stroke:none;stroke-width:5.65319;stroke-linecap:round;stroke-dasharray:none;stroke-opacity:1"
       d="m 74.722571,122.87209 c 1.123507,2.10942 2.450219,4.12142 3.982702,5.99963 h 60.857267 c 1.58283,-1.83606 3.0197,-3.8393 4.28604,-5.99963 z"
       id="path24901" />
    <path
       style="fill:#ff0a2b;fill-opacity:1;stroke:none;stroke-width:5.65319;stroke-linecap:round;stroke-dasharray:none;stroke-opacity:1"
       d="m 14.754138,122.87209 c -1.661998,0 -2.999817,1.33782 -2.999817,2.99981 0,1.662 1.337819,2.99982 2.999817,2.99982 h 44.897001 c -0.956562,-1.94888 -1.790638,-3.95282 -2.499589,-5.99963 z"
       id="rect24284" />
    <rect
       style="fill:#01001f;fill-opacity:1;stroke:none;stroke-width:23.7488;stroke-linecap:round;stroke-dasharray:none;stroke-opacity:1"
       id="rect21999"
       width="6.9420576"
       height="91.679688"
       x="52.264999"
       y="186.54503"
       ry="3.4710288"
       transform="rotate(-25.190073)" />
    <path
       id="rect24286"
       style="fill:#00e528;fill-opacity:1;stroke:none;stroke-width:5.65319;stroke-linecap:round;stroke-dasharray:none;stroke-opacity:1"
       d="M 14.754138 168.89667 C 13.09214 168.89667 11.754321 170.23449 11.754321 171.89648 C 11.754321 173.55848 13.09214 174.89682 14.754138 174.89682 L 133.08645 174.89682 L 130.2644 168.89667 L 14.754138 168.89667 z M 152.36641 168.89667 L 155.18846 174.89682 L 194.73385 174.89682 C 196.39585 174.89682 197.73418 173.55848 197.73418 171.89648 C 197.73418 170.23449 196.39585 168.89667 194.73385 168.89667 L 152.36641 168.89667 z " />
    <path
       id="rect24288"
       style="fill:#00e528;fill-opacity:1;stroke:none;stroke-width:5.65319;stroke-linecap:round;stroke-dasharray:none;stroke-opacity:1"
       d="M 14.754138 214.92125 C 13.09214 214.92125 11.754321 216.25958 11.754321 217.92158 C 11.754321 219.58358 13.09214 220.9214 14.754138 220.9214 L 154.73422 220.9214 L 151.91217 214.92125 L 14.754138 214.92125 z M 174.01418 214.92125 L 176.83623 220.9214 L 194.73385 220.9214 C 196.39585 220.9214 197.73418 219.58358 197.73418 217.92158 C 197.73418 216.25958 196.39585 214.92125 194.73385 214.92125 L 174.01418 214.92125 z " />
    <text
       xml:space="preserve"
       style="font-style:normal;font-variant:normal;font-weight:600;font-stretch:normal;font-size:18.3527px;font-family:'JetBrains Mono';-inkscape-font-specification:'JetBrains Mono Semi-Bold';fill:#000001;fill-opacity:1;stroke:none;stroke-width:34.6823;stroke-linecap:round;stroke-dasharray:none;stroke-opacity:1"
       x="15.067137"
       y="23.445044"
       id="text25000"
       transform="scale(1.0686847,0.93572968)"><tspan
         sodipodi:role="line"
         id="tspan24998"
         style="font-style:normal;font-variant:normal;font-weight:600;font-stretch:normal;font-size:18.3527px;font-family:'JetBrains Mono';-inkscape-font-specification:'JetBrains Mono Semi-Bold';fill:#000001;fill-opacity:1;stroke:none;stroke-width:34.6823"
         x="15.067137"
         y="23.445044">Index Inspector</tspan></text>
  </g>
</svg>
